<?xml version="1.0" encoding="UTF-8"?>
<svg version="1.1" xmlns="http://www.w3.org/2000/svg" width="512" height="512">
<path d="M0 0 C168.96 0 337.92 0 512 0 C512 168.96 512 337.92 512 512 C343.04 512 174.08 512 0 512 C0 343.04 0 174.08 0 0 Z " fill="#000000" transform="translate(0,0)"/>
<path d="M0 0 C168.96 0 337.92 0 512 0 C512 168.96 512 337.92 512 512 C343.04 512 174.08 512 0 512 C0 343.04 0 174.08 0 0 Z M79.0625 48.4375 C78.39210693 48.78603027 77.72171387 49.13456055 77.03100586 49.49365234 C60.9051461 58.24861776 51.28455469 70.81955247 44.875 87.8671875 C42.67652658 95.73850752 42.85573653 103.69257604 42.86628723 111.80194092 C42.86402167 113.08254497 42.86175612 114.36314902 42.85942191 115.68255925 C42.85332768 119.22141778 42.85343469 122.76025261 42.85461628 126.29911518 C42.85482089 130.12201104 42.84929578 133.94489941 42.84455872 137.76779175 C42.83626462 145.25178808 42.83350443 152.73577653 42.83294634 160.21977708 C42.83247058 166.3054878 42.83041286 172.39119592 42.82724571 178.47690582 C42.81844247 195.74483791 42.81382581 213.0127638 42.81457619 230.28069815 C42.81461614 231.21093885 42.8146561 232.14117956 42.81469727 233.09960938 C42.81473815 234.03099068 42.81477903 234.96237198 42.81482115 235.92197695 C42.81522751 251.01271157 42.80565963 266.10342123 42.7915589 281.19414863 C42.77718247 296.70275181 42.77028941 312.21134282 42.77115268 327.71995282 C42.77148421 336.42139316 42.76875619 345.12280732 42.75797462 353.82424164 C42.74885295 361.2333072 42.74670805 368.64233473 42.75348405 376.05140349 C42.75674086 379.82806929 42.75683638 383.60466217 42.7481308 387.38132095 C42.73877066 391.48431018 42.74506368 395.58713183 42.75276184 399.69012451 C42.74761828 400.87147122 42.74247471 402.05281793 42.73717529 403.26996303 C42.78008497 413.65258231 43.57158793 423.70861174 48.5 433 C49.02557495 434.00945679 49.02557495 434.00945679 49.56176758 435.03930664 C57.80848581 450.27666833 70.58266435 461.23097923 87 467 C95.39817872 468.96753241 103.69274046 469.28648398 112.28295898 469.25396729 C113.56698073 469.25708727 114.85100248 469.26020725 116.17393398 469.26342177 C119.70378495 469.27170163 123.23352652 469.26767584 126.76337767 469.26144934 C130.58348009 469.2568977 134.40356455 469.26392197 138.22366333 469.26940918 C145.69375449 469.27827603 153.16380532 469.27639328 160.63389802 469.2705839 C166.70807363 469.26605672 172.78223798 469.26545906 178.85641479 469.26763153 C179.72278767 469.267938 180.58916055 469.26824446 181.48178715 469.26856022 C183.24211796 469.2691997 185.00244878 469.26984813 186.76277959 469.2705054 C203.24748844 469.27620076 219.73217501 469.26966328 236.2168802 469.25890467 C250.34414223 469.24996988 264.47137138 469.25152214 278.59863281 469.26074219 C295.02663876 469.27145886 311.45462521 469.27565151 327.88263416 469.26951766 C329.63628451 469.2688806 331.38993485 469.26825186 333.14358521 469.26763153 C334.00628743 469.26732298 334.86898966 469.26701443 335.75783437 469.26669653 C341.8207286 469.26497378 347.88361039 469.26787562 353.94650269 469.27259064 C361.3408363 469.27821501 368.73512749 469.27665039 376.12945628 469.26602915 C379.89804591 469.26079333 383.66656494 469.25867982 387.43515396 469.26532745 C391.52917708 469.27243962 395.6230238 469.26391514 399.71704102 469.25396729 C400.89565925 469.25842873 402.07427748 469.26289017 403.28861141 469.26748681 C413.8174445 469.21802798 423.80717775 468.3671502 433.1875 463.3125 C433.86820557 462.95583252 434.54891113 462.59916504 435.25024414 462.23168945 C449.44790177 454.60868373 458.56171826 443.76043371 465 429 C465.32871094 428.25621094 465.65742188 427.51242187 465.99609375 426.74609375 C469.49725185 418.18584596 469.14553477 409.28455577 469.13371277 400.19805908 C469.13597833 398.91745503 469.13824388 397.63685098 469.14057809 396.31744075 C469.14667232 392.77858222 469.14656531 389.23974739 469.14538372 385.70088482 C469.14517911 381.87798896 469.15070422 378.05510059 469.15544128 374.23220825 C469.16373538 366.74821192 469.16649557 359.26422347 469.16705366 351.78022292 C469.16752942 345.6945122 469.16958714 339.60880408 469.17275429 333.52309418 C469.18155753 316.25516209 469.18617419 298.9872362 469.18542381 281.71930185 C469.18538386 280.78906115 469.1853439 279.85882044 469.18530273 278.90039062 C469.18526185 277.96900932 469.18522097 277.03762802 469.18517885 276.07802305 C469.18477249 260.98728843 469.19434037 245.89657877 469.2084411 230.80585137 C469.22281753 215.29724819 469.22971059 199.78865718 469.22884732 184.28004718 C469.22851579 175.57860684 469.23124381 166.87719268 469.24202538 158.17575836 C469.25114705 150.7666928 469.25329195 143.35766527 469.24651595 135.94859651 C469.24325914 132.17193071 469.24316362 128.39533783 469.2518692 124.61867905 C469.26122934 120.51568982 469.25493632 116.41286817 469.24723816 112.30987549 C469.2549535 110.53785542 469.2549535 110.53785542 469.26282471 108.73003697 C469.21948888 98.24430507 468.38925876 88.23107954 463.375 78.875 C463.02163574 78.19759766 462.66827148 77.52019531 462.30419922 76.82226562 C453.29064784 60.05026491 439.03221885 49.71020264 421 44 C414.06300058 42.85699117 407.21681305 42.85715547 400.19805908 42.86628723 C398.91745503 42.86402167 397.63685098 42.86175612 396.31744075 42.85942191 C392.77858222 42.85332768 389.23974739 42.85343469 385.70088482 42.85461628 C381.87798896 42.85482089 378.05510059 42.84929578 374.23220825 42.84455872 C366.74821192 42.83626462 359.26422347 42.83350443 351.78022292 42.83294634 C345.6945122 42.83247058 339.60880408 42.83041286 333.52309418 42.82724571 C316.25516209 42.81844247 298.9872362 42.81382581 281.71930185 42.81457619 C280.78906115 42.81461614 279.85882044 42.8146561 278.90039062 42.81469727 C277.96900932 42.81473815 277.03762802 42.81477903 276.07802305 42.81482115 C260.98728843 42.81522751 245.89657877 42.80565963 230.80585137 42.7915589 C215.29724819 42.77718247 199.78865718 42.77028941 184.28004718 42.77115268 C175.57860684 42.77148421 166.87719268 42.76875619 158.17575836 42.75797462 C150.7666928 42.74885295 143.35766527 42.74670805 135.94859651 42.75348405 C132.17193071 42.75674086 128.39533783 42.75683638 124.61867905 42.7481308 C120.51568982 42.73877066 116.41286817 42.74506368 112.30987549 42.75276184 C111.12852878 42.74761828 109.94718207 42.74247471 108.73003697 42.73717529 C98.39859755 42.77987345 88.32190395 43.55231994 79.0625 48.4375 Z " fill="#FDFDFD" transform="translate(0,0)"/>
<path d="M0 0 C1.49094921 -0.00713528 2.9818958 -0.01483889 4.47283936 -0.02307129 C7.58581161 -0.03642563 10.69853081 -0.03812982 13.81152344 -0.03222656 C16.94733347 -0.02754287 20.08212522 -0.04119547 23.21777344 -0.07324219 C50.77166751 -0.35134814 75.19271198 2.07774011 100.296875 14.46875 C101.40546875 15.00757812 102.5140625 15.54640625 103.65625 16.1015625 C134.48160792 32.03670515 159.25649381 61.74797256 170 94.62011719 C181.41380592 131.60401885 181.59640559 182.53330906 164.296875 217.46875 C163.7709375 218.58121094 163.245 219.69367188 162.703125 220.83984375 C146.40851403 254.65116152 117.98936984 278.80817506 83.203125 292.1875 C68.4621712 297.27373819 53.46634655 298.63385798 37.984375 298.70703125 C37.25043518 298.71110678 36.51649536 298.7151823 35.76031494 298.71938133 C31.87097467 298.74015138 27.98166866 298.75448872 24.09228516 298.76391602 C20.1232435 298.77492794 16.1547705 298.80929293 12.18592834 298.84908772 C9.09193045 298.87553333 5.99806209 298.88363249 2.90396118 298.88719749 C1.4434528 298.89199615 -0.01705256 298.90341136 -1.47744751 298.92223549 C-24.45019737 299.19982107 -43.0224201 291.39287915 -59.953125 275.71875 C-75.53689694 259.29435966 -80.01638003 237.94966922 -79.9777832 216.11791992 C-79.98213762 214.48238392 -79.98732319 212.84684995 -79.99327087 211.21131897 C-80.00659466 206.79380055 -80.00724688 202.37636804 -80.00470757 197.95883346 C-80.0036332 194.25889638 -80.00853318 190.55897635 -80.013313 186.85904294 C-80.02438562 178.12305651 -80.02485846 169.38711309 -80.01879883 160.65112305 C-80.01276248 151.66703504 -80.02506661 142.68310378 -80.0463689 133.6990425 C-80.06403741 125.96026277 -80.06997794 118.22153269 -80.06673115 110.48273355 C-80.06492627 105.87194667 -80.0674744 101.26127159 -80.08144569 96.65050316 C-80.09410496 92.3108063 -80.09200415 87.97135208 -80.07903481 83.63165855 C-80.07668687 82.04874079 -80.07933888 80.46580551 -80.08765793 78.88290787 C-80.14894449 66.30412444 -78.9519087 54.47248945 -72.890625 43.21875 C-72.53734131 42.54255615 -72.18405762 41.8663623 -71.82006836 41.16967773 C-62.53202656 23.65177875 -48.02216604 9.40848692 -28.703125 3.46875 C-19.08836048 0.71622231 -9.96352996 -0.00592687 0 0 Z " fill="#FDFDFD" transform="translate(207.703125,106.53125)"/>
<path d="M0 0 C1.81250244 -0.00786278 1.81250244 -0.00786278 3.66162109 -0.0158844 C6.20979041 -0.02227987 8.75798934 -0.02099989 11.30615234 -0.01245117 C15.14866616 -0.00399174 18.98966574 -0.03265934 22.83203125 -0.06445312 C40.09607677 -0.11517726 56.03617028 1.01916127 72 8.12109375 C72.78568359 8.46285645 73.57136719 8.80461914 74.38085938 9.15673828 C81.63562013 12.42968533 87.95581248 16.45492651 94.1875 21.43359375 C95.12851562 22.18125 96.06953125 22.92890625 97.0390625 23.69921875 C114.15152074 38.25685928 127.20726919 60.88316767 129.1875 83.43359375 C129.34166237 86.95719752 129.37472871 90.47722767 129.390625 94.00390625 C129.39632507 95.00259735 129.40202515 96.00128845 129.40789795 97.03024292 C129.41730311 99.13636226 129.42386399 101.24249603 129.42773438 103.34863281 C129.43740773 106.5282642 129.46846146 109.70723949 129.5 112.88671875 C129.63647372 138.73397962 123.19616973 161.50358762 106.1875 181.43359375 C105.59453125 182.18382812 105.0015625 182.9340625 104.390625 183.70703125 C95.35447686 194.71259629 82.98791279 201.64036972 70.1875 207.43359375 C68.60497437 208.15506592 68.60497437 208.15506592 66.99047852 208.89111328 C51.72520279 215.36776437 34.96353948 215.09160442 18.68798828 215.01000977 C14.79764854 214.99604042 10.90967325 215.03046997 7.01953125 215.06835938 C4.50520775 215.06930997 1.99088129 215.06745494 -0.5234375 215.0625 C-1.66541595 215.07575821 -2.80739441 215.08901642 -3.98397827 215.10267639 C-13.26363369 214.99684017 -22.62108987 212.83570285 -30.25 207.24609375 C-36.6683002 200.20161792 -41.052946 192.27066166 -41.07992554 182.66680908 C-41.08445665 181.99918446 -41.08898776 181.33155984 -41.09365618 180.64370418 C-41.10628385 178.41376563 -41.10468089 176.18407183 -41.10302734 173.95410156 C-41.10901371 172.35222053 -41.11581951 170.75034238 -41.12338257 169.14846802 C-41.14104099 164.80117556 -41.14573794 160.45396186 -41.14701414 156.106637 C-41.14843665 153.3883514 -41.15270818 150.67008576 -41.15800858 147.95180511 C-41.17650991 138.46199779 -41.18467925 128.97224663 -41.18310547 119.48242188 C-41.18190477 110.64771141 -41.20299281 101.81324552 -41.2345928 92.97859693 C-41.26078149 85.38520069 -41.27147164 77.7918842 -41.27019465 70.19844317 C-41.26968568 65.66703108 -41.27533246 61.13583627 -41.29655075 56.6044693 C-41.31597635 52.33948769 -41.31602828 48.07492963 -41.30151749 43.80993271 C-41.29943347 42.24952193 -41.30410593 40.68908434 -41.3162384 39.12871933 C-41.37652674 30.83399181 -41.22168462 23.70222599 -36.8125 16.43359375 C-36.43454473 15.78293568 -36.05658947 15.1322776 -35.66718102 14.46190262 C-31.15085237 7.02638362 -23.82090906 3.45235523 -15.73320007 1.08255005 C-10.51582644 -0.07670883 -5.3243185 -0.01372611 0 0 Z " fill="#000000" transform="translate(211.8125,148.56640625)"/>
<path d="M0 0 C0.33 0 0.66 0 1 0 C1 31.35 1 62.7 1 95 C-30.35 95 -61.7 95 -94 95 C-94 94.67 -94 94.34 -94 94 C-93.14172607 93.83564453 -93.14172607 93.83564453 -92.26611328 93.66796875 C-62.92862058 87.90472403 -36.70048878 74.91845459 -19 50 C-8.8139588 34.46576853 -3.56116357 18.09909014 0 0 Z " fill="#020202" transform="translate(511,417)"/>
<path d="M0 0 C1.71763179 3.43526358 2.49346284 6.11848147 3.19067383 9.83764648 C8.44526601 37.5106505 24.9902 61.28534363 48.125 77.1875 C62.23760169 86.47853564 77.61218069 90.56123656 94 94 C94 94.33 94 94.66 94 95 C62.98 95 31.96 95 0 95 C0 63.65 0 32.3 0 0 Z " fill="#020202" transform="translate(0,417)"/>
<path d="M0 0 C31.35 0 62.7 0 95 0 C95 31.02 95 62.04 95 94 C94.67 94 94.34 94 94 94 C93.76216797 92.87078125 93.76216797 92.87078125 93.51953125 91.71875 C87.13768084 62.66546413 74.15386158 36.16216329 48.71484375 19.28515625 C33.47217312 9.66314394 17.52535573 4.62460603 0 1 C0 0.67 0 0.34 0 0 Z " fill="#020202" transform="translate(417,0)"/>
<path d="M0 0 C31.02 0 62.04 0 94 0 C94 0.33 94 0.66 94 1 C93.2471875 1.15855469 92.494375 1.31710938 91.71875 1.48046875 C61.31779551 8.15834832 36.05677983 21.86498786 18 48 C15.76490221 51.57237617 13.82900083 55.20609734 12 59 C11.57332031 59.82242188 11.14664062 60.64484375 10.70703125 61.4921875 C5.74828475 71.53174194 2.61946987 82.9277549 1 94 C0.67 94 0.34 94 0 94 C0 62.98 0 31.96 0 0 Z " fill="#010101" transform="translate(0,0)"/>
</svg>
